<?xml version="1.0" ?><svg height="72px" version="1.1" viewBox="0 0 100 72" width="100px" xmlns="http://www.w3.org/2000/svg" xmlns:xlink="http://www.w3.org/1999/xlink"><title/><desc/><defs><rect height="71.4285714" id="path-1" rx="6.63157895" width="100" x="0" y="0"/></defs><g fill="none" fill-rule="evenodd" id="Content" stroke="none" stroke-width="1"><g id="Indonesian-Bank-Icons" transform="translate(-370.000000, -1019.000000)"><g id="Jenius" transform="translate(370.000000, 1019.000000)"><mask fill="white" id="mask-2"><use xlink:href="#path-1"/></mask><use fill="#05B0EE" id="Background" xlink:href="#path-1"/><path d="M70.9023135,43.533572 C68.9669912,47.9011432 65.891434,51.2208639 61.6459879,53.4247704 C60.3632794,54.0905477 59.0092226,54.5698717 57.6065599,54.9119266 C57.5115775,54.9351773 57.4101291,54.9304825 57.203442,54.947697 C57.9554976,54.4229893 58.6297389,53.9702696 59.2522528,53.4471269 C62.6651536,50.5783373 64.8642416,46.9831842 65.4006916,42.528199 C66.000909,37.5438113 64.7101739,33.0282399 61.547661,29.103328 C59.2176934,26.2117348 56.2752454,24.1383904 52.9020321,22.6147931 C51.5629139,22.0098255 50.2625913,21.3359998 48.82693,20.9803074 C47.1168007,20.5566512 45.3805847,20.3974727 43.6035663,20.4104395 C44.7796983,19.4629699 46.079129,18.7323586 47.4523606,18.1354393 C50.215992,16.9335524 53.1062666,16.3493764 56.1176103,16.5239808 C59.4910466,16.7196004 62.5030592,17.9351248 65.1438377,20.0268015 C69.0860536,23.1491141 71.5785615,27.1981047 72.4403151,32.1630423 C73.1216912,36.0886249 72.5118863,39.9008599 70.9023135,43.533572 M53.1680274,53.7677195 C52.500698,54.1844452 51.7713847,54.486929 51.0527736,54.8084158 C50.672844,54.9783254 50.3259129,54.9760898 49.9397403,54.8745912 C43.6700094,53.226468 39.3556676,49.2966376 36.6743097,43.4586777 C36.6468852,43.3992093 36.5900295,43.3312455 36.6814445,43.204484 C39.9048264,46.0652252 43.6927517,47.1164291 47.9165704,46.5789782 C50.4980407,46.2503372 52.8164141,45.2074052 54.7305549,43.4398982 C59.3403233,39.183439 59.7942768,34.0067851 57.8955205,28.2611576 C58.3242791,28.608578 58.5936189,29.0002644 58.8749987,29.3742891 C60.6228088,31.6960145 61.6618183,34.3130695 61.9652714,37.1992972 C62.753893,44.6987942 59.2850284,49.9476597 53.1680274,53.7677195 M46.273776,56.0020308 C40.9083847,56.4612339 36.684566,54.2235691 33.1905065,50.3567841 C30.9575281,47.8854936 29.5109415,44.9833928 29.0531976,41.6692612 C28.3885437,36.8552302 29.221535,32.3731937 32.3064566,28.4724268 C32.7066759,27.9664986 33.1601835,27.5052834 33.6645267,27.0907934 C31.6975436,32.8234541 32.1570712,38.4450029 34.4286223,43.9350953 C36.7342869,49.5081304 40.7219873,53.4761904 46.2755598,55.8386046 L46.2755598,55.8386046 L46.2755598,55.8386046 C46.3627384,55.8368161 46.4755579,55.8535835 46.4704298,55.9445745 C46.4637409,56.0630641 46.3462391,55.997336 46.273776,56.0020308 M40.2116241,24.9660291 C43.5944248,22.4835603 47.9761016,22.6662131 51.2121925,25.3434073 C53.4246583,27.1737361 54.9506198,29.4739992 55.302902,32.3347404 C55.8134882,36.4816527 54.8493944,40.2243589 51.5178753,43.0236197 C48.2568125,45.7638592 43.3025657,45.6592306 40.0767312,42.8805379 C37.8453135,40.9583237 36.6453245,38.4890452 36.1998436,35.6124309 C36.0903685,34.9068589 36.014561,34.1979334 36.0212499,33.4764883 C36.1287183,30.0034018 37.3599222,27.0588236 40.2116241,24.9660291 M76.1441831,32.3740879 C75.1363885,26.9904126 72.4779959,22.5846118 68.1877341,19.2000571 C64.1813047,16.0390678 59.5608341,14.5425218 54.5042471,14.3073312 C52.4610105,14.2125395 50.4438606,14.4323042 48.4601552,14.9114045 C43.7848356,16.0401856 39.6894438,18.1716569 36.5485583,21.9262121 C36.4337322,22.0632576 36.3048593,22.172581 36.1342923,22.2510524 C33.0437966,23.6731511 30.4226388,25.7060301 28.3292355,28.3946261 C25.1479936,32.4807286 23.7495672,37.090868 24.4719686,42.2605914 C25.1586959,47.1752268 27.5756192,51.0762172 31.5954263,53.9512666 C35.7775509,56.9423464 40.5396032,58.0894598 45.5968592,58.2142092 C47.1317392,58.2519917 48.637857,58.0024929 50.1339414,57.6702749 C50.7071803,57.5428427 51.2614674,57.2703166 51.8726101,57.3646612 C53.0333575,57.5439605 54.1990102,57.6434471 55.4324437,57.6166192 C56.5198363,57.6528368 57.6571726,57.5654228 58.7844755,57.3617548 C65.6307898,56.124321 70.7705421,52.4520379 74.097825,46.3440111 C76.4813038,41.9686151 77.058779,37.2607776 76.1441831,32.3740879" fill="#FFFFFF" id="Jenius-Logo" mask="url(#mask-2)"/></g></g></g></svg>